<svg xmlns="http://www.w3.org/2000/svg" width="375" viewBox="0 0 375 375" height="375" version="1.0"><defs><clipPath id="a"><path d="M 90 55.472656 L 286 55.472656 L 286 319.472656 L 90 319.472656 Z M 90 55.472656"/></clipPath></defs><g clip-path="url(#a)"><path d="M 285.753906 172.089844 C 286.222656 165.640625 284.820312 159.015625 281.246094 153.558594 C 277.058594 147.195312 270.53125 143.007812 263.519531 140.355469 C 262.324219 139.898438 261.105469 139.488281 259.871094 139.109375 C 261.222656 134.355469 262.015625 129.507812 262.238281 124.566406 C 262.433594 120.59375 262.273438 116.632812 261.757812 112.6875 C 261.242188 108.742188 260.382812 104.875 259.171875 101.085938 C 257.964844 97.292969 256.429688 93.640625 254.566406 90.125 C 252.703125 86.613281 250.539062 83.292969 248.082031 80.164062 C 245.6875 77.207031 243.0625 74.476562 240.203125 71.96875 C 237.34375 69.460938 234.292969 67.210938 231.050781 65.226562 C 227.8125 63.238281 224.425781 61.539062 220.894531 60.128906 C 217.363281 58.71875 213.738281 57.617188 210.019531 56.828125 C 206.402344 56.066406 202.746094 55.613281 199.054688 55.472656 C 198.792969 55.476562 198.546875 55.535156 198.3125 55.652344 C 198.082031 55.769531 197.886719 55.933594 197.726562 56.140625 C 197.570312 56.347656 197.464844 56.582031 197.414062 56.835938 C 197.363281 57.09375 197.371094 57.347656 197.4375 57.601562 C 200.835938 71.46875 204.648438 87.480469 198.679688 101.207031 C 192.992188 114.234375 179.449219 120.90625 166.28125 123.953125 C 150.402344 127.617188 133.609375 126.859375 118.160156 132.472656 C 106.265625 136.792969 93.914062 145.351562 90.859375 158.417969 C 88.421875 168.871094 92.167969 182.019531 102.226562 187.160156 C 103.472656 187.796875 104.769531 188.296875 106.125 188.652344 C 108.214844 189.214844 109.109375 185.976562 107.019531 185.417969 C 96.449219 182.589844 91.941406 170.042969 93.925781 160.101562 C 96.492188 147.25 108.941406 139.089844 120.535156 135.199219 C 135.917969 130.035156 152.472656 130.792969 168.140625 126.964844 C 181.011719 123.851562 194.160156 117.199219 200.5625 105.003906 C 207.519531 91.730469 205.140625 76.011719 201.9375 62.007812 C 201.703125 60.988281 201.453125 59.976562 201.210938 58.964844 C 204.570312 59.230469 207.890625 59.765625 211.164062 60.5625 C 214.441406 61.359375 217.632812 62.410156 220.742188 63.714844 C 223.851562 65.023438 226.839844 66.566406 229.703125 68.347656 C 232.566406 70.128906 235.269531 72.125 237.816406 74.339844 C 240.5625 76.753906 243.078125 79.386719 245.359375 82.246094 C 247.640625 85.105469 249.652344 88.140625 251.398438 91.355469 C 253.144531 94.570312 254.59375 97.914062 255.746094 101.386719 C 256.902344 104.859375 257.742188 108.402344 258.273438 112.023438 C 259.546875 120.464844 259.253906 129.746094 256.761719 138.21875 C 251.402344 136.816406 245.953125 136.136719 240.417969 136.171875 C 232.875 136.257812 224.5 138.320312 219.359375 144.265625 C 216.828125 147.175781 215.3125 150.863281 215.964844 154.753906 C 216.585938 158.261719 218.9375 161.207031 221.78125 163.199219 C 227.777344 167.382812 235.671875 166.796875 241.878906 163.46875 C 250.269531 158.960938 255.699219 151.117188 258.835938 142.335938 C 265.199219 144.203125 271.371094 147.238281 275.921875 152.183594 C 277.988281 154.46875 279.585938 157.046875 280.714844 159.917969 C 281.84375 162.785156 282.429688 165.761719 282.476562 168.847656 C 282.785156 181.203125 275.929688 193.683594 265.992188 200.828125 C 253.527344 209.792969 237.960938 212.558594 222.96875 213.722656 C 205.460938 215.078125 187.792969 215.226562 170.242188 214.9375 C 151.96875 214.636719 133.730469 213.609375 115.53125 211.855469 C 111.089844 211.4375 106.65625 210.964844 102.226562 210.433594 C 101.15625 210.316406 100.296875 211.613281 100.609375 212.5625 C 107.402344 233.3125 114.203125 254.0625 121.007812 274.8125 C 124.40625 285.1875 127.804688 295.5625 131.203125 305.9375 C 132.023438 308.429688 132.777344 310.988281 133.691406 313.457031 C 134.414062 315.414062 135.414062 317.347656 137.296875 318.40625 C 139.179688 319.464844 141.539062 319.414062 143.683594 319.378906 L 151.765625 319.257812 L 217.300781 318.277344 L 250.066406 317.777344 C 254.335938 317.714844 259.148438 317.597656 261.050781 313.027344 C 261.921875 310.941406 262.050781 308.597656 262.355469 306.378906 L 263.5 298.164062 C 266.496094 276.582031 269.496094 255.019531 272.496094 233.472656 C 272.863281 230.820312 273.230469 228.167969 273.605469 225.519531 C 273.65625 225.304688 273.664062 225.085938 273.632812 224.867188 C 273.601562 224.648438 273.53125 224.445312 273.421875 224.253906 C 273.3125 224.0625 273.171875 223.894531 273 223.757812 C 272.828125 223.617188 272.640625 223.515625 272.429688 223.453125 C 271.644531 223.226562 270.488281 223.726562 270.363281 224.628906 L 261.660156 287.261719 C 260.925781 292.566406 260.1875 297.871094 259.445312 303.175781 C 259.125 305.527344 258.917969 307.941406 258.410156 310.265625 C 257.949219 312.355469 256.972656 313.664062 254.828125 314.136719 C 252.683594 314.609375 250.40625 314.417969 248.25 314.449219 L 240.167969 314.566406 L 224.300781 314.808594 L 160.847656 315.761719 L 144.988281 315.996094 C 143.03125 316.027344 140.167969 316.527344 138.523438 315.1875 C 137.003906 313.945312 136.5625 311.496094 135.992188 309.742188 L 126.042969 279.359375 L 106.285156 219.070312 L 104.644531 214.050781 C 123.1875 216.125 141.800781 217.460938 160.480469 218.054688 C 179.582031 218.644531 198.734375 218.515625 217.816406 217.433594 C 233.820312 216.511719 250.59375 214.425781 264.519531 205.851562 C 276.257812 198.601562 284.71875 186.03125 285.753906 172.089844 Z M 248.660156 153.578125 C 244.464844 158.4375 238.605469 162.757812 231.929688 162.820312 C 226.011719 162.875 217.964844 158.492188 219.296875 151.492188 C 220.675781 144.203125 229.410156 140.691406 235.902344 139.832031 C 242.394531 138.972656 249.289062 139.832031 255.703125 141.460938 C 254.078125 145.921875 251.730469 149.960938 248.660156 153.578125 Z M 248.660156 153.578125"/></g><path d="M 162.9375 242.460938 C 162.410156 240.371094 159.167969 241.253906 159.699219 243.359375 L 170.367188 285.4375 L 173.386719 297.355469 C 173.917969 299.445312 177.15625 298.5625 176.621094 296.457031 C 173.066406 282.433594 169.511719 268.40625 165.957031 254.375 Z M 162.9375 242.460938"/><path d="M 221.925781 239.355469 C 220.792969 252.078125 219.390625 264.773438 217.710938 277.441406 C 217.238281 281.007812 216.742188 284.570312 216.21875 288.121094 C 216.167969 288.335938 216.15625 288.554688 216.1875 288.773438 C 216.21875 288.992188 216.289062 289.195312 216.398438 289.386719 C 216.507812 289.582031 216.648438 289.746094 216.820312 289.882812 C 216.992188 290.023438 217.183594 290.125 217.394531 290.1875 C 218.183594 290.40625 219.328125 289.921875 219.457031 289.019531 C 221.328125 276.179688 222.917969 263.300781 224.234375 250.386719 C 224.605469 246.714844 224.957031 243.035156 225.285156 239.355469 C 225.28125 239.132812 225.238281 238.917969 225.152344 238.714844 C 225.070312 238.507812 224.949219 238.328125 224.789062 238.171875 C 224.632812 238.011719 224.453125 237.890625 224.246094 237.808594 C 224.039062 237.722656 223.828125 237.679688 223.605469 237.679688 C 223.382812 237.679688 223.167969 237.722656 222.964844 237.808594 C 222.757812 237.890625 222.578125 238.011719 222.417969 238.171875 C 222.261719 238.328125 222.140625 238.507812 222.054688 238.714844 C 221.96875 238.917969 221.925781 239.132812 221.925781 239.355469 Z M 221.925781 239.355469"/></svg>