<svg xmlns="http://www.w3.org/2000/svg" width="375" viewBox="0 0 375 375" height="375" version="1.0"><defs><clipPath id="a"><path d="M 146.082031 10.3125 L 225 10.3125 L 225 115.179688 L 146.082031 115.179688 Z M 146.082031 10.3125"/></clipPath></defs><g clip-path="url(#a)"><path d="M 224.917969 56.636719 C 225.105469 54.074219 224.546875 51.441406 223.117188 49.273438 C 221.445312 46.746094 218.839844 45.082031 216.039062 44.03125 C 215.5625 43.847656 215.074219 43.6875 214.582031 43.535156 C 215.121094 41.648438 215.4375 39.722656 215.527344 37.757812 C 215.683594 34.578125 215.277344 31.46875 214.304688 28.429688 C 213.328125 25.394531 211.851562 22.625 209.875 20.121094 C 207.949219 17.753906 205.679688 15.777344 203.074219 14.1875 C 200.464844 12.597656 197.664062 11.484375 194.671875 10.851562 C 193.226562 10.550781 191.769531 10.371094 190.292969 10.3125 C 190.1875 10.3125 190.089844 10.339844 189.996094 10.386719 C 189.902344 10.433594 189.824219 10.496094 189.761719 10.578125 C 189.699219 10.660156 189.660156 10.753906 189.636719 10.855469 C 189.617188 10.957031 189.621094 11.058594 189.648438 11.160156 C 191.003906 16.667969 192.527344 23.027344 190.144531 28.480469 C 187.871094 33.65625 182.464844 36.304688 177.203125 37.515625 C 170.863281 38.972656 164.15625 38.667969 157.984375 40.898438 C 153.234375 42.617188 148.300781 46.015625 147.082031 51.207031 C 146.109375 55.355469 147.605469 60.578125 151.621094 62.621094 C 152.121094 62.875 152.640625 63.074219 153.179688 63.214844 C 154.011719 63.4375 154.371094 62.152344 153.535156 61.929688 C 149.316406 60.808594 147.515625 55.820312 148.308594 51.875 C 149.332031 46.769531 154.304688 43.527344 158.933594 41.984375 C 165.078125 39.929688 171.691406 40.230469 177.945312 38.710938 C 183.085938 37.476562 188.339844 34.832031 190.894531 29.988281 C 193.675781 24.714844 192.722656 18.472656 191.445312 12.910156 C 191.351562 12.503906 191.25 12.101562 191.152344 11.699219 C 193.855469 11.914062 196.457031 12.542969 198.957031 13.585938 C 201.453125 14.632812 203.726562 16.039062 205.773438 17.808594 C 207.984375 19.738281 209.792969 21.992188 211.199219 24.566406 C 212.601562 27.140625 213.519531 29.878906 213.941406 32.777344 C 214.453125 36.128906 214.335938 39.816406 213.339844 43.183594 C 211.199219 42.625 209.023438 42.355469 206.8125 42.367188 C 203.800781 42.402344 200.457031 43.222656 198.402344 45.582031 C 197.390625 46.738281 196.785156 48.203125 197.046875 49.75 C 197.292969 51.144531 198.234375 52.3125 199.371094 53.105469 C 201.765625 54.765625 204.917969 54.535156 207.394531 53.210938 C 210.746094 51.421875 212.914062 48.304688 214.167969 44.816406 C 216.710938 45.558594 219.175781 46.765625 220.992188 48.726562 C 221.816406 49.636719 222.457031 50.660156 222.90625 51.800781 C 223.355469 52.941406 223.589844 54.121094 223.609375 55.347656 C 223.734375 60.253906 220.996094 65.214844 217.027344 68.050781 C 212.046875 71.613281 205.832031 72.710938 199.84375 73.171875 C 192.851562 73.710938 185.796875 73.769531 178.785156 73.65625 C 171.488281 73.535156 164.203125 73.128906 156.9375 72.429688 C 155.164062 72.265625 153.390625 72.078125 151.621094 71.867188 C 151.195312 71.820312 150.851562 72.335938 150.976562 72.710938 C 153.691406 80.953125 156.40625 89.195312 159.125 97.4375 C 160.480469 101.558594 161.839844 105.679688 163.195312 109.800781 C 163.523438 110.792969 163.824219 111.808594 164.1875 112.789062 C 164.476562 113.566406 164.875 114.335938 165.628906 114.753906 C 166.382812 115.175781 167.320312 115.15625 168.179688 115.140625 L 171.40625 115.09375 L 197.582031 114.703125 L 210.664062 114.503906 C 212.371094 114.480469 214.292969 114.433594 215.054688 112.617188 C 215.402344 111.789062 215.453125 110.859375 215.574219 109.976562 L 216.03125 106.714844 C 217.226562 98.140625 218.425781 89.578125 219.625 81.019531 C 219.769531 79.964844 219.917969 78.910156 220.066406 77.859375 C 220.109375 77.679688 220.085938 77.515625 219.992188 77.355469 C 219.902344 77.199219 219.769531 77.089844 219.597656 77.039062 C 219.285156 76.949219 218.820312 77.144531 218.773438 77.503906 L 215.296875 102.382812 C 215.003906 104.492188 214.707031 106.597656 214.414062 108.703125 C 214.285156 109.640625 214.203125 110.597656 213.996094 111.519531 C 213.8125 112.351562 213.425781 112.871094 212.566406 113.058594 C 211.710938 113.246094 210.800781 113.171875 209.941406 113.183594 L 206.710938 113.230469 L 200.375 113.328125 L 175.035156 113.703125 L 168.699219 113.796875 C 167.917969 113.8125 166.777344 114.007812 166.117188 113.476562 C 165.511719 112.984375 165.335938 112.011719 165.105469 111.3125 L 161.132812 99.246094 L 153.242188 75.296875 L 152.589844 73.304688 C 159.992188 74.128906 167.425781 74.65625 174.886719 74.894531 C 182.515625 75.128906 190.164062 75.078125 197.785156 74.644531 C 204.175781 74.28125 210.875 73.453125 216.4375 70.046875 C 221.125 67.167969 224.503906 62.175781 224.917969 56.636719 Z M 210.105469 49.28125 C 208.429688 51.214844 206.089844 52.929688 203.421875 52.953125 C 201.058594 52.976562 197.847656 51.234375 198.378906 48.453125 C 198.929688 45.558594 202.417969 44.164062 205.007812 43.820312 C 207.601562 43.480469 210.355469 43.820312 212.917969 44.46875 C 212.269531 46.242188 211.332031 47.84375 210.105469 49.28125 Z M 210.105469 49.28125"/></g><path d="M 175.867188 84.589844 C 175.65625 83.757812 174.363281 84.109375 174.574219 84.945312 L 178.835938 101.660156 L 180.042969 106.394531 C 180.253906 107.222656 181.546875 106.871094 181.332031 106.035156 C 179.914062 100.464844 178.492188 94.894531 177.074219 89.320312 Z M 175.867188 84.589844"/><path d="M 199.425781 83.355469 C 198.976562 88.410156 198.414062 93.453125 197.742188 98.484375 C 197.554688 99.902344 197.355469 101.316406 197.148438 102.726562 C 197.105469 102.902344 197.128906 103.070312 197.21875 103.230469 C 197.308594 103.386719 197.441406 103.492188 197.617188 103.546875 C 197.933594 103.632812 198.390625 103.441406 198.441406 103.082031 C 199.1875 97.980469 199.824219 92.867188 200.347656 87.738281 C 200.496094 86.277344 200.636719 84.816406 200.769531 83.355469 C 200.769531 83.171875 200.703125 83.015625 200.570312 82.882812 C 200.441406 82.753906 200.28125 82.6875 200.097656 82.6875 C 199.914062 82.6875 199.753906 82.753906 199.625 82.882812 C 199.492188 83.015625 199.429688 83.171875 199.425781 83.355469 Z M 199.425781 83.355469"/><g><g><g><path d="M 14.785156 -8.21875 L 15.101562 -8.25 C 15.730469 -8.414062 16.019531 -8.761719 15.972656 -9.292969 C 16.046875 -9.621094 16.007812 -10.046875 15.96875 -10.472656 C 15.941406 -10.789062 15.902344 -11.214844 15.871094 -11.535156 C 15.5 -16.753906 15.328125 -22.09375 15.277344 -27.34375 C 15.273438 -28.519531 15.726562 -29.417969 16.636719 -30.039062 C 28.527344 -39.386719 38.375 -57.011719 40.089844 -72.171875 C 40.433594 -74.242188 40.449219 -76.386719 39.734375 -78.355469 C 38.996094 -80.539062 38.039062 -81.632812 36.65625 -81.503906 C 36.125 -81.453125 35.296875 -81.164062 34.386719 -80.542969 C 33.566406 -80.148438 32.871094 -79.546875 32.175781 -78.949219 C 31.492188 -78.242188 30.914062 -77.546875 30.21875 -76.945312 C 20.054688 -65.078125 14.691406 -47.652344 13.550781 -32.113281 L 13.476562 -30.605469 C 13.222656 -29.832031 12.21875 -29.097656 11.371094 -29.019531 C 11.042969 -29.097656 10.800781 -29.394531 10.769531 -29.714844 C 10.742188 -30.03125 10.710938 -30.351562 10.683594 -30.671875 C 10.535156 -31.085938 10.496094 -31.511719 10.457031 -31.9375 C 10.417969 -32.359375 10.378906 -32.785156 10.351562 -33.105469 C 9.675781 -40.4375 9.804688 -47.203125 10.472656 -53.910156 C 10.949219 -59.203125 12.339844 -68.550781 13.214844 -74.203125 C 13.457031 -75.082031 13.484375 -75.941406 13.308594 -76.675781 C 13.269531 -77.101562 12.699219 -77.476562 12.390625 -77.34375 C 11.964844 -77.304688 11.773438 -77.070312 11.8125 -76.644531 C 11.878906 -75.902344 11.839844 -75.148438 11.699219 -74.382812 C 11.554688 -73.621094 11.398438 -72.964844 11.363281 -72.210938 L 9.882812 -63.820312 C 7.816406 -52.484375 7.742188 -41.652344 8.796875 -30.175781 C 9.042969 -27.519531 9.0625 -27.304688 6.433594 -26.742188 L 3.671875 -26.488281 C 0.550781 -26.628906 -1.375 -28.917969 -0.914062 -32.070312 C -0.722656 -33.480469 -0.308594 -34.804688 0.316406 -36.148438 C 1.050781 -37.5 1.898438 -38.757812 2.960938 -40.035156 C 3.25 -40.382812 3.230469 -40.59375 2.988281 -40.894531 C 2.640625 -41.183594 2.410156 -41.378906 2.101562 -41.242188 C 0.234375 -40.535156 -2.222656 -35.804688 -2.578125 -33.84375 C -3.539062 -30.328125 -1.980469 -27.363281 1.46875 -25.964844 C 2.917969 -25.347656 4.550781 -25.070312 6.359375 -25.234375 C 6.679688 -25.265625 6.890625 -25.285156 7.210938 -25.3125 C 7.527344 -25.34375 7.742188 -25.363281 8.050781 -25.5 C 8.15625 -25.507812 8.261719 -25.519531 8.359375 -25.632812 C 8.464844 -25.644531 8.570312 -25.652344 8.679688 -25.664062 C 9.210938 -25.710938 9.460938 -25.304688 9.636719 -24.574219 C 9.847656 -23.414062 10.054688 -22.359375 10.257812 -21.308594 C 10.472656 -20.148438 10.675781 -19.09375 10.890625 -17.9375 C 11.453125 -15.308594 12.015625 -12.679688 12.996094 -10.199219 C 13.167969 -9.464844 13.429688 -8.953125 13.777344 -8.664062 C 14.019531 -8.363281 14.359375 -8.179688 14.785156 -8.21875 Z M 12.859375 -17.472656 C 12.628906 -18.847656 12.402344 -20.113281 12.171875 -21.484375 C 11.9375 -22.855469 11.605469 -24.109375 11.375 -25.484375 C 11.285156 -26.4375 11.664062 -27.007812 12.597656 -27.308594 C 13.015625 -27.457031 13.238281 -27.367188 13.277344 -26.945312 C 13.402344 -26.742188 13.421875 -26.527344 13.441406 -26.316406 C 13.355469 -26.09375 13.375 -25.882812 13.394531 -25.667969 L 13.554688 -20.429688 C 13.535156 -19.464844 13.625 -18.507812 12.859375 -17.472656 Z M 15.898438 -32.222656 C 15.558594 -32.40625 15.425781 -32.714844 15.5 -33.042969 C 15.578125 -33.371094 15.550781 -33.691406 15.625 -34.019531 C 17.15625 -48.84375 22.460938 -66.90625 33.28125 -77.441406 C 34.0625 -78.265625 36.050781 -79.949219 37.21875 -80.054688 C 37.75 -80.105469 38.109375 -79.707031 38.292969 -78.867188 C 38.410156 -78.769531 38.4375 -78.453125 38.46875 -78.132812 C 38.710938 -75.476562 38.820312 -73.128906 38.207031 -70.5 C 35.128906 -56.175781 28.757812 -43.910156 18.109375 -33.820312 C 17.820312 -33.472656 17.625 -33.238281 17.316406 -33.101562 C 17.113281 -32.976562 16.921875 -32.746094 16.71875 -32.621094 C 16.527344 -32.386719 16.324219 -32.261719 16.109375 -32.242188 Z M 15.898438 -32.222656" transform="translate(76.134 247.43)"/></g></g></g><g><g><g><path d="M 7.730469 -25.46875 C 8.050781 -25.5 8.464844 -25.644531 8.871094 -25.894531 C 9.789062 -26.410156 10.578125 -27.125 11.253906 -27.9375 C 11.738281 -28.515625 12.210938 -29.203125 12.691406 -29.785156 C 13.175781 -30.363281 13.65625 -30.945312 14.140625 -31.523438 C 15.570312 -33.476562 16.996094 -35.429688 18.203125 -37.472656 C 19.40625 -39.511719 20.613281 -41.550781 21.828125 -43.484375 C 22.011719 -43.824219 22.097656 -44.046875 22.175781 -44.375 C 22.253906 -44.703125 22.222656 -45.023438 21.875 -45.3125 C 21.757812 -45.40625 21.652344 -45.398438 21.546875 -45.386719 C 21.332031 -45.367188 21.128906 -45.242188 21.035156 -45.128906 L 18.488281 -41.355469 C 17.457031 -39.761719 16.53125 -38.175781 15.59375 -36.695312 C 14.5625 -35.101562 13.519531 -33.609375 12.476562 -32.121094 C 11.917969 -31.214844 8.136719 -26.898438 7.390625 -26.832031 C 7.179688 -26.8125 7.074219 -26.800781 6.957031 -26.898438 C 6.078125 -27.140625 6.105469 -28 6.035156 -28.742188 C 5.734375 -30.859375 5.859375 -33.011719 6.085938 -35.179688 C 6.585938 -40.261719 7.972656 -44.996094 9.78125 -49.773438 C 10.042969 -50.4375 10.410156 -51.117188 10.667969 -51.78125 C 10.929688 -52.449219 11.296875 -53.125 11.546875 -53.898438 C 11.796875 -54.671875 11.84375 -55.320312 11.476562 -55.824219 C 11.332031 -56.238281 10.78125 -56.402344 10.460938 -56.371094 C 10.25 -56.351562 10.140625 -56.34375 10.046875 -56.226562 C 9.351562 -55.628906 8.859375 -55.152344 8.394531 -54.359375 C 7.933594 -53.566406 7.460938 -52.882812 6.988281 -52.195312 C 6.523438 -51.402344 5.945312 -50.707031 5.480469 -49.914062 C 5.097656 -49.449219 4.796875 -49.207031 4.476562 -49.175781 L 4.042969 -49.246094 C 3.820312 -49.332031 3.503906 -49.300781 3.078125 -49.261719 C -0.21875 -48.960938 -2.734375 -43.691406 -3.425781 -40.734375 C -3.675781 -39.960938 -3.609375 -39.214844 -3.414062 -38.269531 C -3.210938 -37.214844 -2.523438 -36.742188 -1.566406 -36.832031 C -1.140625 -36.871094 -0.726562 -37.015625 -0.4375 -37.363281 C 0.046875 -37.945312 0.527344 -38.523438 1 -39.210938 C 1.472656 -39.898438 1.839844 -40.574219 2.3125 -41.261719 C 3.054688 -42.507812 3.808594 -43.648438 4.550781 -44.898438 C 5.1875 -46.132812 5.9375 -47.273438 6.683594 -48.523438 C 6.84375 -49.074219 7.136719 -49.421875 7.53125 -49.78125 C 7.628906 -49.894531 7.722656 -50.011719 7.832031 -50.019531 C 7.9375 -50.03125 8.050781 -49.933594 8.382812 -49.859375 C 6.585938 -48.40625 4.945312 -38.289062 4.617188 -36.007812 C 4.292969 -33.726562 4.179688 -31.464844 4.488281 -29.242188 C 4.636719 -28.828125 4.675781 -28.402344 4.820312 -27.988281 C 4.859375 -27.5625 5.003906 -27.148438 5.246094 -26.847656 C 5.875 -25.835938 6.667969 -25.371094 7.730469 -25.46875 Z M -1.558594 -39.082031 C -1.675781 -39.179688 -1.800781 -39.382812 -1.917969 -39.480469 L -1.851562 -39.914062 C -1.378906 -42.957031 0.375 -46.011719 3.117188 -47.660156 C 3.320312 -47.785156 3.542969 -47.699219 3.660156 -47.601562 C 3.6875 -47.28125 3.699219 -47.175781 3.699219 -47.175781 L 2.046875 -44.128906 C 1.007812 -42.640625 0.0820312 -41.054688 -0.960938 -39.566406 C -1.058594 -39.449219 -1.046875 -39.34375 -1.152344 -39.335938 C -1.261719 -39.324219 -1.464844 -39.199219 -1.558594 -39.082031 Z M -1.558594 -39.082031" transform="translate(118.43 243.538)"/></g></g></g><g><g><g><path d="M 7.765625 -20.433594 C 8.191406 -20.472656 8.5 -20.609375 8.800781 -20.851562 C 11.867188 -23.597656 13.625 -26.652344 13.792969 -30.636719 C 13.773438 -32.027344 14.207031 -33.136719 15.179688 -34.191406 C 17.785156 -37.324219 20.625 -40.265625 23.695312 -43.015625 C 24.1875 -43.488281 24.582031 -43.847656 24.773438 -44.078125 C 25.160156 -44.542969 25.121094 -44.96875 24.753906 -45.46875 C 24.628906 -45.671875 24.511719 -45.769531 24.191406 -45.738281 C 24.085938 -45.730469 23.992188 -45.613281 23.679688 -45.476562 C 21.277344 -43.648438 17.089844 -39.082031 14.453125 -36.269531 C 14.164062 -35.921875 13.972656 -35.6875 13.886719 -35.464844 C 13.691406 -35.234375 13.394531 -34.992188 13.082031 -34.855469 L 12.746094 -35.039062 C 12.511719 -35.234375 12.386719 -35.4375 12.269531 -35.53125 C 10.289062 -38.457031 7.511719 -39.488281 4.082031 -39.496094 L 0.113281 -39.558594 C -1.171875 -39.546875 -1.832031 -39.699219 -1.234375 -41.363281 C -0.0117188 -45.546875 5.546875 -52.703125 9.292969 -55.085938 C 9.804688 -55.347656 9.882812 -55.675781 9.628906 -56.082031 C 9.496094 -56.390625 9.15625 -56.574219 8.835938 -56.542969 L 8.519531 -56.515625 C 4.789062 -55.101562 -0.226562 -47.886719 -2.058594 -44.503906 C -2.230469 -44.058594 -2.40625 -43.613281 -2.589844 -43.273438 C -2.761719 -42.832031 -2.933594 -42.386719 -3.003906 -41.949219 C -3.40625 -40.519531 -2.980469 -39.378906 -1.722656 -38.53125 C -0.929688 -38.070312 -0.0507812 -37.828125 0.703125 -37.789062 L 2.722656 -37.976562 C 3.582031 -37.949219 4.441406 -37.921875 5.300781 -37.890625 C 6.160156 -37.863281 7.03125 -37.730469 7.910156 -37.488281 C 9.003906 -37.269531 9.914062 -36.707031 10.734375 -35.925781 C 11.34375 -35.125 11.722656 -34.515625 11.769531 -33.984375 C 11.820312 -33.453125 11.570312 -32.679688 10.902344 -31.761719 L 10.246094 -30.738281 C 8.820312 -28.785156 7.527344 -26.523438 6.5625 -24.183594 C 6.101562 -23.390625 5.945312 -22.734375 5.898438 -22.085938 C 5.851562 -21.4375 6.21875 -20.9375 6.78125 -20.664062 C 7.117188 -20.484375 7.445312 -20.40625 7.765625 -20.433594 Z M 8.949219 -23.867188 C 8.613281 -24.050781 8.59375 -24.261719 8.667969 -24.589844 L 10.714844 -27.992188 C 10.792969 -28.324219 10.992188 -28.449219 11.3125 -28.476562 C 11.417969 -28.488281 11.523438 -28.496094 11.640625 -28.402344 C 11.179688 -27.609375 10.820312 -26.824219 10.464844 -26.042969 C 10.109375 -25.257812 9.644531 -24.464844 8.949219 -23.867188 Z M 8.949219 -23.867188" transform="translate(144.15 241.172)"/></g></g></g><g><g><g><path d="M 2.492188 -2.050781 C 3.765625 -2.167969 4.34375 -2.863281 4.226562 -4.140625 C 4.1875 -4.566406 3.945312 -4.863281 3.617188 -4.941406 C 3.511719 -4.933594 3.511719 -4.933594 3.503906 -5.039062 C 3.394531 -5.027344 3.394531 -5.027344 3.289062 -5.019531 C 3.078125 -5 2.875 -4.871094 2.789062 -4.652344 C 2.691406 -4.535156 2.605469 -4.3125 2.515625 -4.089844 C 2.429688 -3.867188 2.335938 -3.75 2.015625 -3.722656 C 0.507812 -4.976562 -1.078125 -12.871094 -1.261719 -14.886719 C -2.238281 -21.980469 -2.660156 -28.90625 -2.144531 -36.136719 C -1.867188 -37.769531 -1.472656 -39.304688 -0.875 -40.96875 C 0.230469 -44.070312 1.351562 -47.066406 2.574219 -50.074219 C 3.691406 -53.070312 4.914062 -56.078125 6.128906 -59.1875 C 6.378906 -59.960938 6.882812 -60.328125 7.519531 -60.390625 C 7.625 -60.398438 7.730469 -60.410156 7.839844 -60.417969 C 7.847656 -60.3125 7.953125 -60.320312 8.058594 -60.332031 C 12.484375 -59.988281 18.707031 -59.917969 23.277344 -60.339844 C 26.679688 -60.652344 30.15625 -61.292969 33.09375 -63.171875 C 33.808594 -63.558594 33.835938 -64.417969 33.34375 -65.121094 C 33.214844 -65.324219 33.101562 -65.421875 32.886719 -65.402344 C 32.78125 -65.390625 32.683594 -65.277344 32.589844 -65.160156 C 32.492188 -65.042969 32.289062 -64.917969 32.191406 -64.800781 C 31.882812 -64.667969 31.46875 -64.519531 31.160156 -64.386719 C 30.851562 -64.25 30.445312 -64 30.136719 -63.863281 C 27.738281 -63.105469 25.324219 -62.5625 22.988281 -62.347656 C 22.667969 -62.320312 22.242188 -62.277344 21.925781 -62.25 C 21.5 -62.210938 21.074219 -62.171875 20.746094 -62.25 C 19.140625 -62.207031 17.632812 -62.285156 16.136719 -62.253906 C 14.53125 -62.210938 13.035156 -62.183594 11.535156 -62.152344 C 11.207031 -62.230469 10.890625 -62.199219 10.570312 -62.171875 C 10.25 -62.140625 9.816406 -62.207031 9.488281 -62.285156 C 9.160156 -62.363281 8.839844 -62.332031 8.523438 -62.304688 C 8.203125 -62.273438 7.980469 -62.359375 7.632812 -62.648438 C 7.699219 -63.085938 7.765625 -63.519531 7.949219 -63.859375 C 8.027344 -64.1875 8.210938 -64.523438 8.289062 -64.855469 C 9.367188 -68.273438 10.359375 -71.476562 11.214844 -74.984375 C 11.269531 -75.523438 11.425781 -76.179688 11.578125 -76.839844 C 11.636719 -77.378906 11.683594 -78.027344 11.625 -78.664062 C 11.664062 -79.417969 11.488281 -80.152344 11.109375 -80.761719 C 10.839844 -81.378906 10.386719 -81.660156 9.746094 -81.601562 C 6.132812 -81.269531 1.722656 -68.644531 0.605469 -64.46875 C 0.191406 -63.144531 0.0195312 -62.699219 -0.832031 -62.621094 C -1.257812 -62.582031 -1.683594 -62.542969 -2.011719 -62.621094 C -5.355469 -62.847656 -8.464844 -62.882812 -11.441406 -62.609375 C -16.753906 -62.121094 -26.667969 -60.351562 -30.75 -56.976562 C -31.25 -56.605469 -31.320312 -56.171875 -31.058594 -55.660156 C -30.882812 -54.925781 -30.429688 -54.648438 -29.472656 -54.734375 C -28.941406 -54.785156 -28.640625 -55.027344 -28.574219 -55.460938 C -28.566406 -58.890625 -12.859375 -60.550781 -11.371094 -60.6875 C -9.671875 -60.84375 -2 -61.335938 -0.839844 -60.371094 C -0.472656 -59.867188 -0.644531 -59.421875 -0.914062 -58.863281 C -2.882812 -48.820312 -4.074219 -39.601562 -4.089844 -29.3125 C -3.929688 -22.894531 -3.574219 -16.710938 -2.242188 -10.402344 C -1.738281 -8.414062 -1.273438 -6.847656 -0.554688 -4.878906 C -0.148438 -3.953125 0.140625 -3.121094 1.058594 -2.457031 C 1.410156 -2.164062 1.960938 -2.003906 2.492188 -2.050781 Z M -1.140625 -46.195312 C -1.140625 -46.195312 -1.152344 -46.300781 -1.269531 -46.398438 C -1.40625 -47.886719 -0.03125 -56.265625 0.730469 -58.476562 C 0.824219 -58.59375 0.804688 -58.804688 0.890625 -59.027344 C 0.980469 -59.25 0.960938 -59.464844 1.046875 -59.6875 C 1.210938 -60.238281 1.617188 -60.488281 2.148438 -60.539062 L 4.089844 -60.394531 C 4.195312 -60.40625 4.300781 -60.414062 4.3125 -60.308594 C 4.320312 -60.203125 4.320312 -60.203125 4.4375 -60.105469 L 4.476562 -59.679688 L -0.1875 -47.460938 L -0.726562 -46.339844 C -0.824219 -46.222656 -0.929688 -46.214844 -1.140625 -46.195312 Z M 4.542969 -62.472656 C 3.796875 -62.402344 3.371094 -62.363281 3.148438 -62.453125 C 2.289062 -62.480469 1.933594 -62.875 2.171875 -63.753906 C 3.386719 -68.046875 4.734375 -72.027344 7.046875 -75.992188 C 7.683594 -77.230469 8.425781 -78.476562 9.519531 -79.4375 C 9.835938 -79.464844 9.941406 -79.476562 9.941406 -79.476562 C 10.050781 -79.484375 10.164062 -79.386719 10.183594 -79.175781 C 10.109375 -78.847656 10.148438 -78.421875 10.175781 -78.101562 C 10.214844 -77.679688 10.148438 -77.242188 10.070312 -76.914062 C 9.089844 -72.429688 7.773438 -68.128906 6.132812 -63.796875 C 5.882812 -63.023438 5.285156 -62.539062 4.542969 -62.472656 Z M 4.542969 -62.472656" transform="translate(172.737 238.541)"/></g></g></g><g><g><g><path d="M 2.34375 -29.261719 C 2.875 -29.308594 3.292969 -29.453125 3.804688 -29.714844 C 8.953125 -32.011719 12.152344 -37.988281 14.378906 -42.90625 C 14.660156 -43.363281 14.726562 -43.796875 14.589844 -44.105469 C 14.550781 -44.53125 14.425781 -44.734375 14.097656 -44.808594 C 13.980469 -44.90625 13.875 -44.898438 13.769531 -44.886719 C 13.554688 -44.867188 13.351562 -44.742188 13.277344 -44.414062 L 12.28125 -42.394531 C 10.519531 -38.265625 6.71875 -32.984375 2.699219 -31.222656 C 2.179688 -31.066406 1.761719 -30.921875 1.65625 -30.910156 C 0.167969 -30.773438 -0.867188 -31.539062 -1.542969 -33.082031 C -1.679688 -33.390625 -1.707031 -33.710938 -1.738281 -34.027344 C -1.765625 -34.347656 -1.796875 -34.667969 -1.933594 -34.976562 C -2.117188 -36.996094 -1.746094 -41.101562 -0.617188 -42.8125 C -0.375 -42.515625 -0.132812 -42.214844 0.109375 -41.914062 C 0.246094 -41.605469 0.488281 -41.308594 0.726562 -41.007812 C 0.980469 -40.601562 1.320312 -40.417969 1.851562 -40.46875 C 2.0625 -40.488281 2.273438 -40.507812 2.371094 -40.625 C 4.003906 -41.523438 5.882812 -44.375 5.804688 -46.40625 C 5.746094 -48.222656 4.566406 -49.398438 2.972656 -49.253906 C -1.707031 -48.824219 -3.910156 -40.152344 -3.515625 -35.902344 C -3.378906 -33.234375 -2.238281 -31.304688 0.0351562 -29.90625 C 0.828125 -29.441406 1.601562 -29.191406 2.34375 -29.261719 Z M 1.566406 -42.371094 C 1.335938 -42.566406 1.21875 -42.660156 1.230469 -42.554688 C 1.09375 -42.863281 0.851562 -43.164062 0.511719 -43.347656 C 0.183594 -43.421875 -0.0585938 -43.722656 0.0195312 -44.050781 C 0.046875 -44.910156 0.53125 -45.492188 1.226562 -46.089844 C 1.902344 -46.902344 2.710938 -47.40625 3.445312 -47.582031 C 4.179688 -47.757812 4.414062 -47.5625 4.375 -46.808594 C 4.203125 -45.1875 3.265625 -43.707031 1.566406 -42.371094 Z M 1.566406 -42.371094" transform="translate(183.896 237.515)"/></g></g></g><g><g><g><path d="M 4.738281 -6.757812 C 5.054688 -6.789062 5.269531 -6.808594 5.363281 -6.925781 C 5.675781 -7.058594 5.75 -7.386719 5.710938 -7.8125 C 5.683594 -8.132812 5.546875 -8.441406 5.410156 -8.75 L 5.179688 -8.945312 C 3.273438 -9.839844 1.703125 -16.449219 1.148438 -18.96875 C -0.191406 -25.382812 -1.214844 -31.828125 -1.296875 -38.570312 C -1.136719 -40.300781 -1.167969 -41.796875 -0.570312 -43.460938 C 3.3125 -53.679688 7.175781 -64.109375 9.523438 -74.71875 C 9.667969 -75.484375 9.800781 -76.355469 9.945312 -77.117188 C 9.984375 -77.871094 10.128906 -78.632812 10.273438 -79.398438 C 10.289062 -80.363281 10.125 -80.992188 9.757812 -81.492188 C 9.496094 -82.003906 9.148438 -82.296875 8.617188 -82.246094 C 8.296875 -82.21875 7.988281 -82.082031 7.6875 -81.839844 C 7.292969 -81.480469 7.015625 -81.027344 6.742188 -80.464844 C 6.472656 -79.90625 6.089844 -79.441406 5.816406 -78.878906 C -0.441406 -67.695312 -2.707031 -55.054688 -2.945312 -42.492188 C -3.003906 -41.949219 -3.164062 -41.398438 -3.445312 -40.945312 C -3.726562 -40.492188 -3.78125 -39.949219 -3.519531 -39.4375 C -3.09375 -38.296875 -2.988281 -37.128906 -2.878906 -35.960938 L -2.382812 -30.539062 C -2.125 -26.597656 -1.550781 -22.6875 -0.667969 -18.910156 C 0.3125 -15.246094 1.449219 -9.886719 3.625 -7.191406 C 3.761719 -6.882812 4.207031 -6.710938 4.738281 -6.757812 Z M -0.535156 -48.929688 C -0.769531 -49.121094 -0.808594 -49.546875 -0.75 -50.089844 C 0.15625 -60.03125 2.398438 -70.636719 7.925781 -79.289062 C 8.019531 -79.40625 8.125 -79.414062 8.222656 -79.53125 C 8.320312 -79.648438 8.4375 -79.550781 8.550781 -79.453125 C 8.667969 -79.355469 8.675781 -79.25 8.695312 -79.039062 C 6.949219 -68.910156 3.644531 -59.390625 -0.0625 -49.617188 C -0.160156 -49.5 -0.140625 -49.289062 -0.128906 -49.183594 C -0.21875 -48.960938 -0.3125 -48.84375 -0.535156 -48.929688 Z M -0.535156 -48.929688" transform="translate(202.069 235.843)"/></g></g></g><g><g><g><path d="M 2.34375 -29.261719 C 2.875 -29.308594 3.292969 -29.453125 3.804688 -29.714844 C 8.953125 -32.011719 12.152344 -37.988281 14.378906 -42.90625 C 14.660156 -43.363281 14.726562 -43.796875 14.589844 -44.105469 C 14.550781 -44.53125 14.425781 -44.734375 14.097656 -44.808594 C 13.980469 -44.90625 13.875 -44.898438 13.769531 -44.886719 C 13.554688 -44.867188 13.351562 -44.742188 13.277344 -44.414062 L 12.28125 -42.394531 C 10.519531 -38.265625 6.71875 -32.984375 2.699219 -31.222656 C 2.179688 -31.066406 1.761719 -30.921875 1.65625 -30.910156 C 0.167969 -30.773438 -0.867188 -31.539062 -1.542969 -33.082031 C -1.679688 -33.390625 -1.707031 -33.710938 -1.738281 -34.027344 C -1.765625 -34.347656 -1.796875 -34.667969 -1.933594 -34.976562 C -2.117188 -36.996094 -1.746094 -41.101562 -0.617188 -42.8125 C -0.375 -42.515625 -0.132812 -42.214844 0.109375 -41.914062 C 0.246094 -41.605469 0.488281 -41.308594 0.726562 -41.007812 C 0.980469 -40.601562 1.320312 -40.417969 1.851562 -40.46875 C 2.0625 -40.488281 2.273438 -40.507812 2.371094 -40.625 C 4.003906 -41.523438 5.882812 -44.375 5.804688 -46.40625 C 5.746094 -48.222656 4.566406 -49.398438 2.972656 -49.253906 C -1.707031 -48.824219 -3.910156 -40.152344 -3.515625 -35.902344 C -3.378906 -33.234375 -2.238281 -31.304688 0.0351562 -29.90625 C 0.828125 -29.441406 1.601562 -29.191406 2.34375 -29.261719 Z M 1.566406 -42.371094 C 1.335938 -42.566406 1.21875 -42.660156 1.230469 -42.554688 C 1.09375 -42.863281 0.851562 -43.164062 0.511719 -43.347656 C 0.183594 -43.421875 -0.0585938 -43.722656 0.0195312 -44.050781 C 0.046875 -44.910156 0.53125 -45.492188 1.226562 -46.089844 C 1.902344 -46.902344 2.710938 -47.40625 3.445312 -47.582031 C 4.179688 -47.757812 4.414062 -47.5625 4.375 -46.808594 C 4.203125 -45.1875 3.265625 -43.707031 1.566406 -42.371094 Z M 1.566406 -42.371094" transform="translate(213.759 234.767)"/></g></g></g><g><g><g><path d="M 4.324219 -12.402344 C 4.75 -12.441406 5.058594 -12.578125 5.472656 -12.722656 C 7.222656 -13.527344 8.601562 -14.832031 9.394531 -16.726562 C 9.664062 -17.285156 9.515625 -17.703125 8.851562 -17.960938 C 8.734375 -18.058594 8.617188 -18.15625 8.511719 -18.144531 C 8.300781 -18.125 8.105469 -17.894531 7.921875 -17.554688 C 7.265625 -16.53125 6.613281 -15.503906 5.511719 -14.652344 C 4.601562 -14.035156 3.878906 -13.753906 3.558594 -13.722656 C 2.816406 -13.65625 2.214844 -14.351562 1.75 -15.914062 C 1.207031 -18.332031 0.980469 -20.773438 1.203125 -23.046875 C 2.003906 -31.800781 6.21875 -39.585938 11.011719 -46.882812 L 12.140625 -48.597656 C 12.515625 -49.167969 12.457031 -49.804688 11.976562 -50.402344 C 11.839844 -50.710938 11.5 -50.894531 11.074219 -50.855469 C 10.96875 -50.847656 10.660156 -50.710938 10.246094 -50.566406 C 10.140625 -50.554688 10.03125 -50.546875 10.03125 -50.546875 C 9.9375 -50.429688 9.828125 -50.417969 9.722656 -50.410156 C 6.46875 -48.503906 3.417969 -46.722656 0.308594 -44.398438 C 0.046875 -44.910156 0.0195312 -45.230469 0.308594 -45.578125 C 0.480469 -46.023438 0.65625 -46.46875 0.933594 -46.921875 C 1.117188 -47.261719 1.292969 -47.703125 1.472656 -48.042969 C 2.285156 -49.726562 2.988281 -51.398438 3.574219 -53.167969 C 3.699219 -54.144531 3.523438 -54.875 3.136719 -55.589844 C 2.769531 -56.09375 2.210938 -56.363281 1.679688 -56.316406 C 1.359375 -56.285156 1.148438 -56.265625 0.945312 -56.140625 C -3.023438 -53.84375 -6.015625 -47.890625 -7.671875 -43.773438 C -7.757812 -43.550781 -7.929688 -43.105469 -7.988281 -42.5625 C -8.199219 -41.367188 -8.015625 -40.523438 -7.308594 -39.839844 C -6.730469 -39.359375 -6.0625 -39.097656 -5.316406 -39.164062 C -4.148438 -39.273438 -2.21875 -40.414062 -1.417969 -41.023438 C 1.507812 -43.007812 4.445312 -44.886719 7.378906 -46.765625 C 7.476562 -46.878906 7.679688 -47.007812 7.882812 -47.132812 C 7.976562 -47.25 8.191406 -47.269531 8.296875 -47.277344 C 8.296875 -47.277344 8.414062 -47.179688 8.742188 -47.105469 C 8.664062 -46.777344 8.585938 -46.445312 8.40625 -46.109375 C 8.113281 -45.761719 7.921875 -45.527344 7.738281 -45.191406 C 3.390625 -37.714844 -0.0742188 -31.074219 -0.660156 -22.339844 C -0.746094 -19.757812 -0.511719 -17.207031 0.46875 -14.726562 C 1.378906 -12.988281 2.625 -12.246094 4.324219 -12.402344 Z M -5.898438 -40.828125 C -6.226562 -40.902344 -6.34375 -41 -6.375 -41.320312 C -5.847656 -44.90625 -1.851562 -51.59375 1.148438 -53.90625 C 1.148438 -53.90625 1.253906 -53.917969 1.574219 -53.945312 C 1.691406 -53.851562 1.816406 -53.648438 1.824219 -53.542969 C 1.269531 -51.453125 0.46875 -49.664062 -0.535156 -47.75 C -0.785156 -46.976562 -1.152344 -46.300781 -1.519531 -45.625 C -1.992188 -44.9375 -2.359375 -44.261719 -2.609375 -43.488281 C -3.226562 -42.039062 -4.34375 -41.398438 -5.6875 -40.847656 Z M 0.203125 -44.390625 L 0.191406 -44.496094 L 0.308594 -44.398438 Z M 0.203125 -44.390625" transform="translate(231.932 233.095)"/></g></g></g><g><g><g><path d="M -2.347656 -26.683594 C -1.816406 -26.734375 -1.402344 -26.878906 -0.890625 -27.140625 C -0.582031 -27.277344 -0.386719 -27.507812 -0.183594 -27.632812 C 0.0195312 -27.761719 0.210938 -27.992188 0.519531 -28.128906 C 1.320312 -28.738281 13.183594 -41.941406 13.027344 -43.640625 C 12.878906 -44.054688 12.609375 -44.671875 12.078125 -44.625 C 11.972656 -44.613281 11.769531 -44.488281 11.671875 -44.371094 C 11.382812 -44.023438 11.199219 -43.6875 10.898438 -43.445312 C 10.609375 -43.097656 10.425781 -42.757812 10.136719 -42.410156 L 3.808594 -34.324219 C 2.574219 -32.605469 1 -31.066406 -0.804688 -29.722656 C -1.492188 -29.015625 -2.089844 -28.53125 -2.824219 -28.355469 L -3.238281 -28.210938 C -3.875 -28.152344 -4.222656 -28.441406 -4.292969 -29.183594 C -4.496094 -30.238281 -4.5 -31.417969 -4.394531 -32.605469 C -3.75 -36.09375 -2.769531 -39.402344 -0.90625 -42.464844 C -0.722656 -42.804688 -0.550781 -43.25 -0.28125 -43.808594 C 0.0117188 -44.15625 -0.707031 -44.949219 -1.023438 -44.917969 C -1.351562 -44.996094 -1.652344 -44.753906 -1.835938 -44.417969 C -4.152344 -40.453125 -5.925781 -36.429688 -6.246094 -31.792969 C -6.285156 -31.039062 -6.207031 -30.1875 -6.023438 -29.347656 C -5.539062 -27.570312 -4.046875 -26.527344 -2.347656 -26.683594 Z M 1.023438 -45.964844 C 1.128906 -45.976562 1.226562 -46.089844 1.320312 -46.207031 C 1.589844 -46.769531 1.976562 -47.230469 2.246094 -47.792969 C 2.519531 -48.355469 2.789062 -48.914062 3.058594 -49.476562 C 3.152344 -49.589844 3.144531 -49.699219 3.125 -49.910156 C 3.09375 -50.230469 2.96875 -50.429688 2.652344 -50.402344 C 2.652344 -50.402344 2.542969 -50.390625 2.226562 -50.363281 C 1.367188 -49.210938 0.710938 -48.1875 0.375 -47.191406 C 0.277344 -47.074219 0.191406 -46.851562 0.308594 -46.757812 C 0.335938 -46.4375 0.460938 -46.234375 0.683594 -46.148438 C 0.800781 -46.050781 0.917969 -45.957031 1.023438 -45.964844 Z M 1.023438 -45.964844" transform="translate(251.061 231.335)"/></g></g></g><g><g><g><path d="M 7.730469 -25.46875 C 8.050781 -25.5 8.464844 -25.644531 8.871094 -25.894531 C 9.789062 -26.410156 10.578125 -27.125 11.253906 -27.9375 C 11.738281 -28.515625 12.210938 -29.203125 12.691406 -29.785156 C 13.175781 -30.363281 13.65625 -30.945312 14.140625 -31.523438 C 15.570312 -33.476562 16.996094 -35.429688 18.203125 -37.472656 C 19.40625 -39.511719 20.613281 -41.550781 21.828125 -43.484375 C 22.011719 -43.824219 22.097656 -44.046875 22.175781 -44.375 C 22.253906 -44.703125 22.222656 -45.023438 21.875 -45.3125 C 21.757812 -45.40625 21.652344 -45.398438 21.546875 -45.386719 C 21.332031 -45.367188 21.128906 -45.242188 21.035156 -45.128906 L 18.488281 -41.355469 C 17.457031 -39.761719 16.53125 -38.175781 15.59375 -36.695312 C 14.5625 -35.101562 13.519531 -33.609375 12.476562 -32.121094 C 11.917969 -31.214844 8.136719 -26.898438 7.390625 -26.832031 C 7.179688 -26.8125 7.074219 -26.800781 6.957031 -26.898438 C 6.078125 -27.140625 6.105469 -28 6.035156 -28.742188 C 5.734375 -30.859375 5.859375 -33.011719 6.085938 -35.179688 C 6.585938 -40.261719 7.972656 -44.996094 9.78125 -49.773438 C 10.042969 -50.4375 10.410156 -51.117188 10.667969 -51.78125 C 10.929688 -52.449219 11.296875 -53.125 11.546875 -53.898438 C 11.796875 -54.671875 11.84375 -55.320312 11.476562 -55.824219 C 11.332031 -56.238281 10.78125 -56.402344 10.460938 -56.371094 C 10.25 -56.351562 10.140625 -56.34375 10.046875 -56.226562 C 9.351562 -55.628906 8.859375 -55.152344 8.394531 -54.359375 C 7.933594 -53.566406 7.460938 -52.882812 6.988281 -52.195312 C 6.523438 -51.402344 5.945312 -50.707031 5.480469 -49.914062 C 5.097656 -49.449219 4.796875 -49.207031 4.476562 -49.175781 L 4.042969 -49.246094 C 3.820312 -49.332031 3.503906 -49.300781 3.078125 -49.261719 C -0.21875 -48.960938 -2.734375 -43.691406 -3.425781 -40.734375 C -3.675781 -39.960938 -3.609375 -39.214844 -3.414062 -38.269531 C -3.210938 -37.214844 -2.523438 -36.742188 -1.566406 -36.832031 C -1.140625 -36.871094 -0.726562 -37.015625 -0.4375 -37.363281 C 0.046875 -37.945312 0.527344 -38.523438 1 -39.210938 C 1.472656 -39.898438 1.839844 -40.574219 2.3125 -41.261719 C 3.054688 -42.507812 3.808594 -43.648438 4.550781 -44.898438 C 5.1875 -46.132812 5.9375 -47.273438 6.683594 -48.523438 C 6.84375 -49.074219 7.136719 -49.421875 7.53125 -49.78125 C 7.628906 -49.894531 7.722656 -50.011719 7.832031 -50.019531 C 7.9375 -50.03125 8.050781 -49.933594 8.382812 -49.859375 C 6.585938 -48.40625 4.945312 -38.289062 4.617188 -36.007812 C 4.292969 -33.726562 4.179688 -31.464844 4.488281 -29.242188 C 4.636719 -28.828125 4.675781 -28.402344 4.820312 -27.988281 C 4.859375 -27.5625 5.003906 -27.148438 5.246094 -26.847656 C 5.875 -25.835938 6.667969 -25.371094 7.730469 -25.46875 Z M -1.558594 -39.082031 C -1.675781 -39.179688 -1.800781 -39.382812 -1.917969 -39.480469 L -1.851562 -39.914062 C -1.378906 -42.957031 0.375 -46.011719 3.117188 -47.660156 C 3.320312 -47.785156 3.542969 -47.699219 3.660156 -47.601562 C 3.6875 -47.28125 3.699219 -47.175781 3.699219 -47.175781 L 2.046875 -44.128906 C 1.007812 -42.640625 0.0820312 -41.054688 -0.960938 -39.566406 C -1.058594 -39.449219 -1.046875 -39.34375 -1.152344 -39.335938 C -1.261719 -39.324219 -1.464844 -39.199219 -1.558594 -39.082031 Z M -1.558594 -39.082031" transform="translate(267.64 229.81)"/></g></g></g><g><g><g><path d="M 4.3125 2.605469 C 7.074219 2.351562 10.902344 -6.148438 13.058594 -11.8125 C 14.863281 -16.695312 17.808594 -26.609375 18.625 -29.363281 C 19.808594 -33.976562 27.117188 -40.757812 30.8125 -43.667969 C 31.316406 -44.035156 31.808594 -44.511719 32.195312 -44.976562 C 32.378906 -45.3125 32.347656 -45.632812 32.105469 -45.929688 C 31.972656 -46.242188 31.75 -46.328125 31.429688 -46.296875 C 31.429688 -46.296875 31.324219 -46.289062 31.226562 -46.171875 C 30.714844 -45.910156 30.308594 -45.660156 30.019531 -45.3125 C 27.421875 -43.25 25.144531 -41.21875 23.195312 -39.109375 C 22.519531 -38.296875 22.046875 -37.609375 21.121094 -37.203125 C 21.015625 -37.195312 21.015625 -37.195312 21.015625 -37.195312 C 20.917969 -37.078125 20.917969 -37.078125 20.8125 -37.070312 C 20.90625 -37.183594 20.898438 -37.289062 20.886719 -37.398438 C 20.820312 -38.140625 20.886719 -38.574219 21.15625 -39.136719 C 22.332031 -43.851562 23.109375 -48.210938 23.855469 -52.890625 C 24 -53.652344 23.933594 -54.398438 23.546875 -55.109375 C 23.265625 -55.835938 22.800781 -56.222656 22.054688 -56.152344 C 21.949219 -56.144531 21.949219 -56.144531 21.84375 -56.132812 C 21.746094 -56.015625 21.640625 -56.007812 21.535156 -55.996094 C 20.394531 -55.570312 19.699219 -54.972656 18.917969 -54.148438 C 17.429688 -52.832031 15.945312 -51.519531 14.671875 -50.222656 C 13.300781 -48.808594 11.929688 -47.398438 10.65625 -46.101562 C 8.3125 -43.636719 1.785156 -36.496094 -0.765625 -36.261719 C -1.507812 -36.195312 -1.855469 -36.484375 -1.90625 -37.015625 C -1.929688 -43.121094 3.335938 -49.929688 9.289062 -51.65625 C 10.023438 -51.832031 10.261719 -51.53125 10.226562 -50.777344 C 10.109375 -49.695312 9.667969 -48.691406 8.992188 -47.878906 C 8.703125 -47.53125 8.828125 -47.328125 9.28125 -47.046875 C 9.398438 -46.949219 9.621094 -46.863281 9.832031 -46.882812 C 9.941406 -46.894531 10.046875 -46.902344 10.144531 -47.019531 C 11.203125 -48.296875 11.722656 -49.628906 11.5 -50.894531 C 11.316406 -52.914062 10.203125 -53.347656 8.398438 -53.179688 C 4.996094 -52.867188 0.296875 -48.042969 -1.382812 -45.316406 C -2.597656 -43.382812 -3.273438 -41.390625 -3.5 -39.226562 C -3.539062 -38.472656 -3.597656 -37.929688 -3.421875 -37.195312 C -2.945312 -35.527344 -1.5625 -34.472656 0.03125 -34.621094 C 0.457031 -34.660156 0.765625 -34.796875 1.179688 -34.941406 C 2.105469 -35.347656 3.21875 -36.09375 4.308594 -37.050781 C 6.703125 -38.984375 8.640625 -41.199219 10.890625 -43.550781 C 13.910156 -46.828125 16.933594 -50.109375 20.40625 -53.109375 C 20.609375 -53.234375 20.804688 -53.464844 20.996094 -53.699219 C 21.199219 -53.824219 21.402344 -53.949219 21.71875 -53.980469 C 21.933594 -54 22.039062 -54.007812 22.15625 -53.910156 C 22.484375 -53.835938 22.621094 -53.527344 22.542969 -53.195312 C 22.464844 -52.867188 22.390625 -52.539062 22.3125 -52.210938 L 22.128906 -50.695312 C 20.929688 -45.117188 19.601562 -39.742188 18.078125 -34.136719 C 17.734375 -33.25 17.472656 -32.582031 16.796875 -31.769531 C 11.085938 -23.957031 0.578125 -8.839844 1.46875 0.828125 C 1.90625 2.074219 3.035156 2.722656 4.3125 2.605469 Z M 3.933594 0.816406 C 3.632812 1.058594 3.410156 0.972656 3.382812 0.652344 C 3.101562 -0.0703125 3.03125 -0.816406 3.265625 -1.800781 C 4.203125 -9.066406 10.566406 -20.265625 14.863281 -26.019531 C 14.957031 -26.132812 14.957031 -26.132812 15.054688 -26.25 C 15.160156 -26.257812 15.257812 -26.375 15.355469 -26.492188 C 15.59375 -26.191406 15.625 -25.875 15.558594 -25.4375 C 13.476562 -18.925781 11.367188 -12.726562 8.621094 -6.472656 C 7.917969 -4.800781 5.554688 -0.191406 3.933594 0.816406 Z M 3.933594 0.816406" transform="translate(126.863 329.376)"/></g></g></g><g><g><g><path d="M 2.320312 -42.332031 C 2.535156 -42.351562 2.84375 -42.488281 3.257812 -42.632812 L 6.734375 -43.277344 C 7.894531 -43.488281 9.160156 -43.714844 10.425781 -43.9375 C 11.59375 -44.042969 12.859375 -44.269531 14.125 -44.492188 C 14.339844 -44.511719 14.550781 -44.53125 14.871094 -44.558594 C 15.082031 -44.578125 15.285156 -44.707031 15.488281 -44.832031 C 15.796875 -44.96875 15.882812 -45.1875 15.84375 -45.613281 C 15.816406 -45.933594 15.582031 -46.125 15.265625 -46.097656 L 11.332031 -45.734375 C 9.949219 -45.609375 8.578125 -45.375 7.3125 -45.152344 C 5.941406 -44.917969 4.578125 -44.578125 3.207031 -44.34375 C 2.890625 -44.316406 2.675781 -44.296875 2.472656 -44.167969 C 2.269531 -44.042969 2.058594 -44.023438 1.75 -43.890625 C 1.335938 -43.742188 1.257812 -43.414062 1.394531 -43.105469 C 1.546875 -42.585938 1.886719 -42.402344 2.320312 -42.332031 Z M 2.320312 -42.332031" transform="translate(162.783 326.071)"/></g></g></g><g><g><g><path d="M 7.730469 -25.46875 C 8.050781 -25.5 8.464844 -25.644531 8.871094 -25.894531 C 9.789062 -26.410156 10.578125 -27.125 11.253906 -27.9375 C 11.738281 -28.515625 12.210938 -29.203125 12.691406 -29.785156 C 13.175781 -30.363281 13.65625 -30.945312 14.140625 -31.523438 C 15.570312 -33.476562 16.996094 -35.429688 18.203125 -37.472656 C 19.40625 -39.511719 20.613281 -41.550781 21.828125 -43.484375 C 22.011719 -43.824219 22.097656 -44.046875 22.175781 -44.375 C 22.253906 -44.703125 22.222656 -45.023438 21.875 -45.3125 C 21.757812 -45.40625 21.652344 -45.398438 21.546875 -45.386719 C 21.332031 -45.367188 21.128906 -45.242188 21.035156 -45.128906 L 18.488281 -41.355469 C 17.457031 -39.761719 16.53125 -38.175781 15.59375 -36.695312 C 14.5625 -35.101562 13.519531 -33.609375 12.476562 -32.121094 C 11.917969 -31.214844 8.136719 -26.898438 7.390625 -26.832031 C 7.179688 -26.8125 7.074219 -26.800781 6.957031 -26.898438 C 6.078125 -27.140625 6.105469 -28 6.035156 -28.742188 C 5.734375 -30.859375 5.859375 -33.011719 6.085938 -35.179688 C 6.585938 -40.261719 7.972656 -44.996094 9.78125 -49.773438 C 10.042969 -50.4375 10.410156 -51.117188 10.667969 -51.78125 C 10.929688 -52.449219 11.296875 -53.125 11.546875 -53.898438 C 11.796875 -54.671875 11.84375 -55.320312 11.476562 -55.824219 C 11.332031 -56.238281 10.78125 -56.402344 10.460938 -56.371094 C 10.25 -56.351562 10.140625 -56.34375 10.046875 -56.226562 C 9.351562 -55.628906 8.859375 -55.152344 8.394531 -54.359375 C 7.933594 -53.566406 7.460938 -52.882812 6.988281 -52.195312 C 6.523438 -51.402344 5.945312 -50.707031 5.480469 -49.914062 C 5.097656 -49.449219 4.796875 -49.207031 4.476562 -49.175781 L 4.042969 -49.246094 C 3.820312 -49.332031 3.503906 -49.300781 3.078125 -49.261719 C -0.21875 -48.960938 -2.734375 -43.691406 -3.425781 -40.734375 C -3.675781 -39.960938 -3.609375 -39.214844 -3.414062 -38.269531 C -3.210938 -37.214844 -2.523438 -36.742188 -1.566406 -36.832031 C -1.140625 -36.871094 -0.726562 -37.015625 -0.4375 -37.363281 C 0.046875 -37.945312 0.527344 -38.523438 1 -39.210938 C 1.472656 -39.898438 1.839844 -40.574219 2.3125 -41.261719 C 3.054688 -42.507812 3.808594 -43.648438 4.550781 -44.898438 C 5.1875 -46.132812 5.9375 -47.273438 6.683594 -48.523438 C 6.84375 -49.074219 7.136719 -49.421875 7.53125 -49.78125 C 7.628906 -49.894531 7.722656 -50.011719 7.832031 -50.019531 C 7.9375 -50.03125 8.050781 -49.933594 8.382812 -49.859375 C 6.585938 -48.40625 4.945312 -38.289062 4.617188 -36.007812 C 4.292969 -33.726562 4.179688 -31.464844 4.488281 -29.242188 C 4.636719 -28.828125 4.675781 -28.402344 4.820312 -27.988281 C 4.859375 -27.5625 5.003906 -27.148438 5.246094 -26.847656 C 5.875 -25.835938 6.667969 -25.371094 7.730469 -25.46875 Z M -1.558594 -39.082031 C -1.675781 -39.179688 -1.800781 -39.382812 -1.917969 -39.480469 L -1.851562 -39.914062 C -1.378906 -42.957031 0.375 -46.011719 3.117188 -47.660156 C 3.320312 -47.785156 3.542969 -47.699219 3.660156 -47.601562 C 3.6875 -47.28125 3.699219 -47.175781 3.699219 -47.175781 L 2.046875 -44.128906 C 1.007812 -42.640625 0.0820312 -41.054688 -0.960938 -39.566406 C -1.058594 -39.449219 -1.046875 -39.34375 -1.152344 -39.335938 C -1.261719 -39.324219 -1.464844 -39.199219 -1.558594 -39.082031 Z M -1.558594 -39.082031" transform="translate(190.096 323.558)"/></g></g></g><g><g><g><path d="M -0.488281 -21.605469 C 0.371094 -21.578125 0.75 -22.148438 1.105469 -22.929688 L 1.597656 -24.582031 C 2.183594 -26.351562 2.570312 -27.996094 2.945312 -29.746094 C 3.78125 -33.464844 7.105469 -48.5625 9.335938 -49.945312 L 9.195312 -48.003906 C 9.050781 -47.238281 8.917969 -46.371094 8.773438 -45.605469 C 8.53125 -44.726562 8.398438 -43.855469 8.253906 -43.09375 C 7.957031 -40.496094 7.542969 -37.992188 7.683594 -35.324219 C 7.625 -34.785156 7.671875 -34.253906 7.839844 -33.625 C 7.917969 -32.773438 8.59375 -32.40625 9.367188 -32.15625 C 9.472656 -32.167969 9.472656 -32.167969 9.578125 -32.175781 C 9.589844 -32.070312 9.589844 -32.070312 9.695312 -32.082031 C 10.226562 -32.128906 10.515625 -32.476562 10.785156 -33.039062 C 11.25 -33.832031 11.710938 -34.625 12.070312 -35.40625 L 14.652344 -41.109375 C 14.71875 -41.546875 15.125 -41.796875 15.65625 -41.84375 L 15.609375 -38.839844 C 15.621094 -37.554688 15.75 -36.175781 16.292969 -34.9375 C 16.949219 -33.605469 17.867188 -32.9375 19.144531 -33.058594 C 20.738281 -33.203125 30.46875 -42.78125 30.773438 -45.273438 C 30.851562 -45.601562 30.832031 -45.8125 30.484375 -46.105469 C 30.367188 -46.199219 30.144531 -46.285156 29.933594 -46.265625 C 29.824219 -46.257812 29.71875 -46.246094 29.625 -46.132812 C 29.132812 -45.65625 28.734375 -45.300781 28.347656 -44.835938 C 26.910156 -42.988281 25.472656 -41.140625 23.921875 -39.390625 C 22.878906 -37.902344 21.605469 -36.605469 20.308594 -35.523438 C 20 -35.386719 19.808594 -35.152344 19.605469 -35.027344 C 19.304688 -34.785156 18.996094 -34.652344 18.679688 -34.621094 C 18.253906 -34.582031 17.925781 -34.660156 17.789062 -34.96875 C 17.613281 -35.703125 17.46875 -36.117188 17.402344 -36.863281 L 17.230469 -42.203125 C 17.203125 -42.523438 17.179688 -42.734375 17.257812 -43.066406 C 17.230469 -43.382812 17.210938 -43.597656 17.074219 -43.90625 C 16.910156 -44.535156 16.445312 -44.917969 15.894531 -45.082031 L 15.460938 -45.148438 C 15.140625 -45.121094 14.839844 -44.878906 14.453125 -44.414062 C 14.273438 -44.078125 14.089844 -43.738281 13.894531 -43.503906 C 13.605469 -43.15625 13.421875 -42.820312 13.347656 -42.492188 C 12.621094 -41.03125 12.007812 -39.582031 11.390625 -38.128906 C 11.121094 -37.570312 10.839844 -37.117188 10.675781 -36.566406 C 10.511719 -36.011719 10.125 -35.550781 9.625 -35.183594 C 9.421875 -35.054688 9.296875 -35.257812 9.351562 -35.800781 C 9.410156 -36.339844 9.429688 -37.308594 9.417969 -38.59375 C 9.515625 -38.707031 9.503906 -38.816406 9.496094 -38.921875 C 9.855469 -43.132812 10.558594 -47.164062 11.578125 -51.222656 C 11.636719 -51.765625 11.808594 -52.210938 11.867188 -52.75 C 11.933594 -53.183594 12.105469 -53.628906 12.164062 -54.171875 C 12.316406 -54.828125 12.152344 -55.457031 11.679688 -55.949219 C 11.445312 -56.140625 11.222656 -56.226562 11.011719 -56.207031 C 10.800781 -56.1875 10.585938 -56.167969 10.492188 -56.054688 C 10.09375 -55.695312 9.804688 -55.347656 9.527344 -54.894531 C 4.773438 -45.988281 2.472656 -36.023438 0.046875 -26.261719 C -0.0273438 -25.933594 -0.113281 -25.710938 -0.203125 -25.488281 C -0.277344 -25.160156 -0.472656 -24.929688 -0.546875 -24.601562 C -0.539062 -24.492188 -0.636719 -24.378906 -0.953125 -24.347656 C -1.167969 -24.328125 -1.28125 -24.425781 -1.292969 -24.53125 C -1.449219 -25.054688 -1.59375 -25.46875 -1.621094 -25.789062 C -2.175781 -29.488281 -2.277344 -32.90625 -1.835938 -36.269531 C -1.40625 -40.917969 0.996094 -50.894531 2.859375 -55.136719 C 2.925781 -55.570312 2.875 -56.101562 2.507812 -56.605469 C 2.394531 -56.703125 2.171875 -56.789062 2.0625 -56.777344 C 1.957031 -56.769531 1.851562 -56.757812 1.859375 -56.652344 C 1.773438 -56.429688 1.582031 -56.199219 1.484375 -56.082031 C 1.398438 -55.859375 1.207031 -55.628906 1.128906 -55.300781 C -1.03125 -49.636719 -2.851562 -43.785156 -3.683594 -37.707031 C -4.164062 -33.589844 -4.109375 -29.523438 -3.527344 -25.503906 C -3.332031 -24.558594 -3.148438 -23.71875 -2.75 -22.898438 C -2.238281 -21.980469 -1.445312 -21.515625 -0.488281 -21.605469 Z M -0.488281 -21.605469" transform="translate(215.814 321.192)"/></g></g></g><g><g><g><path d="M -2.269531 -27.015625 C -1.847656 -27.054688 -1.441406 -27.304688 -1.152344 -27.652344 C 1.019531 -29.675781 3.140625 -36.941406 3.726562 -39.890625 C 3.859375 -40.761719 4.246094 -41.222656 4.777344 -41.273438 C 4.988281 -41.292969 5.203125 -41.3125 5.425781 -41.226562 C 8.398438 -41.5 11.039062 -41.957031 13.800781 -43.390625 C 14.320312 -43.542969 14.398438 -43.875 14.136719 -44.386719 C 14 -44.695312 13.664062 -44.878906 13.128906 -44.828125 C 12.609375 -44.671875 12.203125 -44.421875 11.894531 -44.285156 C 10.15625 -43.375 8.15625 -42.976562 6.148438 -42.6875 L 5.507812 -42.628906 C 4.554688 -42.539062 4.425781 -42.742188 4.203125 -44.007812 C 4.019531 -44.847656 3.738281 -45.570312 3.265625 -46.0625 C 2.894531 -46.566406 2.558594 -46.75 2.25 -46.613281 C 1.621094 -46.449219 0.992188 -46.285156 0.367188 -46.121094 C -0.261719 -45.953125 -0.765625 -45.585938 -1.246094 -45.007812 C -3.878906 -41.011719 -5.402344 -36.585938 -5.503906 -31.859375 C -5.511719 -30.789062 -5.316406 -29.839844 -4.910156 -28.914062 C -4.628906 -28.191406 -4.15625 -27.699219 -3.371094 -27.339844 C -2.917969 -27.0625 -2.589844 -26.984375 -2.269531 -27.015625 Z M -3.191406 -28.859375 C -4.011719 -29.640625 -3.792969 -30.730469 -3.773438 -31.699219 C -3.71875 -35.777344 -2.574219 -39.632812 -0.230469 -43.277344 C -0.132812 -43.394531 -0.046875 -43.617188 0.261719 -43.75 C 0.367188 -43.761719 0.589844 -43.675781 0.707031 -43.578125 C 2.445312 -42.132812 2.574219 -41.929688 2.023438 -39.734375 C 1.574219 -37.65625 -1.066406 -29.054688 -3.191406 -28.859375 Z M 2.53125 -43.53125 C 2 -43.484375 1.875 -43.6875 1.933594 -44.226562 C 2.007812 -44.554688 2.203125 -44.789062 2.425781 -44.699219 C 2.53125 -44.710938 2.65625 -44.507812 2.6875 -44.1875 C 2.714844 -43.871094 2.628906 -43.648438 2.53125 -43.53125 Z M 2.53125 -43.53125" transform="translate(250.14 318.034)"/></g></g></g><g><g><g><path d="M 4.324219 -12.402344 C 4.75 -12.441406 5.058594 -12.578125 5.472656 -12.722656 C 7.222656 -13.527344 8.601562 -14.832031 9.394531 -16.726562 C 9.664062 -17.285156 9.515625 -17.703125 8.851562 -17.960938 C 8.734375 -18.058594 8.617188 -18.15625 8.511719 -18.144531 C 8.300781 -18.125 8.105469 -17.894531 7.921875 -17.554688 C 7.265625 -16.53125 6.613281 -15.503906 5.511719 -14.652344 C 4.601562 -14.035156 3.878906 -13.753906 3.558594 -13.722656 C 2.816406 -13.65625 2.214844 -14.351562 1.75 -15.914062 C 1.207031 -18.332031 0.980469 -20.773438 1.203125 -23.046875 C 2.003906 -31.800781 6.21875 -39.585938 11.011719 -46.882812 L 12.140625 -48.597656 C 12.515625 -49.167969 12.457031 -49.804688 11.976562 -50.402344 C 11.839844 -50.710938 11.5 -50.894531 11.074219 -50.855469 C 10.96875 -50.847656 10.660156 -50.710938 10.246094 -50.566406 C 10.140625 -50.554688 10.03125 -50.546875 10.03125 -50.546875 C 9.9375 -50.429688 9.828125 -50.417969 9.722656 -50.410156 C 6.46875 -48.503906 3.417969 -46.722656 0.308594 -44.398438 C 0.046875 -44.910156 0.0195312 -45.230469 0.308594 -45.578125 C 0.480469 -46.023438 0.65625 -46.46875 0.933594 -46.921875 C 1.117188 -47.261719 1.292969 -47.703125 1.472656 -48.042969 C 2.285156 -49.726562 2.988281 -51.398438 3.574219 -53.167969 C 3.699219 -54.144531 3.523438 -54.875 3.136719 -55.589844 C 2.769531 -56.09375 2.210938 -56.363281 1.679688 -56.316406 C 1.359375 -56.285156 1.148438 -56.265625 0.945312 -56.140625 C -3.023438 -53.84375 -6.015625 -47.890625 -7.671875 -43.773438 C -7.757812 -43.550781 -7.929688 -43.105469 -7.988281 -42.5625 C -8.199219 -41.367188 -8.015625 -40.523438 -7.308594 -39.839844 C -6.730469 -39.359375 -6.0625 -39.097656 -5.316406 -39.164062 C -4.148438 -39.273438 -2.21875 -40.414062 -1.417969 -41.023438 C 1.507812 -43.007812 4.445312 -44.886719 7.378906 -46.765625 C 7.476562 -46.878906 7.679688 -47.007812 7.882812 -47.132812 C 7.976562 -47.25 8.191406 -47.269531 8.296875 -47.277344 C 8.296875 -47.277344 8.414062 -47.179688 8.742188 -47.105469 C 8.664062 -46.777344 8.585938 -46.445312 8.40625 -46.109375 C 8.113281 -45.761719 7.921875 -45.527344 7.738281 -45.191406 C 3.390625 -37.714844 -0.0742188 -31.074219 -0.660156 -22.339844 C -0.746094 -19.757812 -0.511719 -17.207031 0.46875 -14.726562 C 1.378906 -12.988281 2.625 -12.246094 4.324219 -12.402344 Z M -5.898438 -40.828125 C -6.226562 -40.902344 -6.34375 -41 -6.375 -41.320312 C -5.847656 -44.90625 -1.851562 -51.59375 1.148438 -53.90625 C 1.148438 -53.90625 1.253906 -53.917969 1.574219 -53.945312 C 1.691406 -53.851562 1.816406 -53.648438 1.824219 -53.542969 C 1.269531 -51.453125 0.46875 -49.664062 -0.535156 -47.75 C -0.785156 -46.976562 -1.152344 -46.300781 -1.519531 -45.625 C -1.992188 -44.9375 -2.359375 -44.261719 -2.609375 -43.488281 C -3.226562 -42.039062 -4.34375 -41.398438 -5.6875 -40.847656 Z M 0.203125 -44.390625 L 0.191406 -44.496094 L 0.308594 -44.398438 Z M 0.203125 -44.390625" transform="translate(267.995 316.391)"/></g></g></g></svg>